<svg xmlns="http://www.w3.org/2000/svg" width="415.667" height="120.362" viewBox="0 0 415.667 120.362"><g transform="translate(-123.435 -233.274)"><g transform="translate(425.392 287.364)"><path d="M337.97,279.635h2.912v-3.969l5.491-1.562v5.531h5.151v4.645h-5.151v8.107a8.037,8.037,0,0,0,.442,3.146,1.671,1.671,0,0,0,1.669.951,5.528,5.528,0,0,0,1.457-.17,10.079,10.079,0,0,0,1.372-.507l.971,4.222a13.818,13.818,0,0,1-2.662.929,12.649,12.649,0,0,1-3.081.38,5.547,5.547,0,0,1-4.286-1.5q-1.372-1.5-1.374-4.919V284.28H337.97Z" transform="translate(-337.97 -270.726)" fill="#fff"/><path d="M361.654,283.32a7.165,7.165,0,0,0-2.366-.464,3.87,3.87,0,0,0-2.47.781,3.757,3.757,0,0,0-1.329,2.006v13.639H350V278.168h4.266l.633,2.787h.167a5.758,5.758,0,0,1,1.944-2.407,4.929,4.929,0,0,1,2.871-.844,7.986,7.986,0,0,1,2.49.464Z" transform="translate(-333.068 -269.259)" fill="#fff"/><path d="M360.32,274.66a2.782,2.782,0,0,1,.906-2.09,3.5,3.5,0,0,1,2.512-.866,3.821,3.821,0,0,1,2.6.866,2.679,2.679,0,0,1,.992,2.09,2.558,2.558,0,0,1-.992,2.048,3.94,3.94,0,0,1-2.6.823,3.608,3.608,0,0,1-2.512-.823A2.651,2.651,0,0,1,360.32,274.66Zm.8,5.954h5.488v21.112h-5.488Z" transform="translate(-328.863 -271.704)" fill="#fff"/><path d="M374.209,294.5a4.591,4.591,0,0,0,.38,2.154,1.3,1.3,0,0,0,1.224.677,5.783,5.783,0,0,0,.992-.086,6,6,0,0,0,1.2-.38l.591,4.307a10.492,10.492,0,0,1-2.069.676,12.143,12.143,0,0,1-2.871.338,5.384,5.384,0,0,1-3.674-1.119,4.707,4.707,0,0,1-1.267-3.695V272.034h5.489Z" transform="translate(-325.44 -271.57)" fill="#fff"/><path d="M390.34,301.591V289.6a7.255,7.255,0,0,0-.718-3.716,2.848,2.848,0,0,0-2.618-1.14,3.946,3.946,0,0,0-2.555.95,4.5,4.5,0,0,0-1.54,2.428v13.47h-5.491V272.034h5.491v10.81h.169a7.612,7.612,0,0,1,2.49-2.154,7.825,7.825,0,0,1,3.758-.8,8.668,8.668,0,0,1,2.829.422A4.6,4.6,0,0,1,394.2,281.7a6.289,6.289,0,0,1,1.224,2.639,17.856,17.856,0,0,1,.4,4.117v13.132Z" transform="translate(-321.895 -271.57)" fill="#fff"/><path d="M394.058,279.381a18.063,18.063,0,0,1,4.011-1.2,25.84,25.84,0,0,1,4.856-.443,11.025,11.025,0,0,1,3.674.528,5.293,5.293,0,0,1,3.568,3.821,11.914,11.914,0,0,1,.359,3.04q0,1.858-.127,3.737t-.148,3.695q-.023,1.818.106,3.526a13.274,13.274,0,0,0,.633,3.23h-4.476l-.887-2.914h-.211a7.53,7.53,0,0,1-2.343,2.259,7.117,7.117,0,0,1-3.864.95,7.526,7.526,0,0,1-2.66-.443,5.694,5.694,0,0,1-3.337-3.209,6.524,6.524,0,0,1-.463-2.512,5.863,5.863,0,0,1,.866-3.272,6.26,6.26,0,0,1,2.491-2.153,12.412,12.412,0,0,1,3.885-1.14,27.517,27.517,0,0,1,5.046-.19,5.5,5.5,0,0,0-.338-3.4q-.633-1.035-2.829-1.034a19.287,19.287,0,0,0-3.484.338,12.719,12.719,0,0,0-3.019.887Zm6.967,15.708a4.223,4.223,0,0,0,2.618-.739,5.173,5.173,0,0,0,1.436-1.583v-2.745a15.1,15.1,0,0,0-2.512-.042,9.166,9.166,0,0,0-2.132.38,3.606,3.606,0,0,0-1.479.844,1.892,1.892,0,0,0-.548,1.393,2.4,2.4,0,0,0,.7,1.837A2.686,2.686,0,0,0,401.025,295.088Z" transform="translate(-315.648 -269.247)" fill="#fff"/><path d="M417.781,293.491a1.576,1.576,0,0,0-.718-1.351,8.724,8.724,0,0,0-1.773-.929q-1.058-.42-2.322-.866a8.691,8.691,0,0,1-2.324-1.225,6.677,6.677,0,0,1-1.772-1.983,7.063,7.063,0,0,1,1.14-7.876,7.843,7.843,0,0,1,5.363-1.647,17.251,17.251,0,0,1,4.349.507,12.629,12.629,0,0,1,3.04,1.14l-1.224,3.969q-.971-.38-2.45-.8a10.905,10.905,0,0,0-3-.422q-2.449,0-2.448,1.9a1.4,1.4,0,0,0,.718,1.225,9.391,9.391,0,0,0,1.773.866q1.056.4,2.322.866a10.078,10.078,0,0,1,2.322,1.2,6.289,6.289,0,0,1,1.772,1.921,5.786,5.786,0,0,1,.719,3.04,6.431,6.431,0,0,1-2.048,5.046q-2.05,1.837-6.144,1.837a15.012,15.012,0,0,1-4.2-.57,12.942,12.942,0,0,1-3.187-1.33l1.52-4.1a14.5,14.5,0,0,0,2.576,1.077,10.434,10.434,0,0,0,3.294.528,3.656,3.656,0,0,0,1.962-.463A1.7,1.7,0,0,0,417.781,293.491Z" transform="translate(-309.56 -269.296)" fill="#fff"/></g><g transform="translate(273.057 287.523)"><path d="M229.739,283.536V281.4h5.624v19.174h3.2v2.131h-8.607v-2.131h2.642V283.536Zm4.175-7.84a1.662,1.662,0,0,1-1.32-.533,2.043,2.043,0,0,1-.469-1.406,2,2,0,0,1,.49-1.406,1.731,1.731,0,0,1,1.343-.533,1.868,1.868,0,0,1,1.384.533,1.958,1.958,0,0,1,.533,1.45,1.783,1.783,0,0,1-.553,1.4A2.049,2.049,0,0,1,233.914,275.7Z" transform="translate(-229.739 -271.817)" fill="#fff"/><path d="M237.156,280.8v-2.131h5.624v2.387a12.9,12.9,0,0,1,6.69-2.515,7.7,7.7,0,0,1,4.729,1.236,4.782,4.782,0,0,1,1.3,1.726,6.286,6.286,0,0,1,.574,2.791v13.55h3.281v2.131h-8.607V297.84h2.557V285.356q0-4.132-4.859-4.134a12.724,12.724,0,0,0-5.667,1.748v14.87h3.2v2.131h-8.607V297.84h2.642V280.8Z" transform="translate(-226.717 -269.078)" fill="#fff"/><path d="M257.942,297.214a10.275,10.275,0,0,0,2.876.555,14.166,14.166,0,0,0,1.427-.044,7.367,7.367,0,0,0,3.709-.937,2.789,2.789,0,0,0,1.491-2.512,2.98,2.98,0,0,0-1.172-2.515,8.372,8.372,0,0,0-2.833-1.364q-1.662-.469-3.323-1.022a7,7,0,0,1-2.833-1.748,4.247,4.247,0,0,1-1.172-3.109,5.275,5.275,0,0,1,2.089-4.369,8.3,8.3,0,0,1,5.284-1.64,14.466,14.466,0,0,1,4.815.853l.767.3v4.9l-2.089.3-.17-3.623a20.036,20.036,0,0,0-2.854-.255,6.561,6.561,0,0,0-3.707.916,2.732,2.732,0,0,0-1.364,2.343,2.569,2.569,0,0,0,1.171,2.237,9.5,9.5,0,0,0,2.835,1.279q1.662.469,3.323,1.043a6.711,6.711,0,0,1,2.833,1.875,4.868,4.868,0,0,1,1.172,3.388,5.338,5.338,0,0,1-2.11,4.452,9.554,9.554,0,0,1-5.986,1.641,10.761,10.761,0,0,1-6.434-1.833v-4.9l2.045-.3Z" transform="translate(-219.167 -269.09)" fill="#fff"/><path d="M277.478,299.081,279.14,299l.128,1.7c-.03,0-.228.042-.6.127a12.531,12.531,0,0,1-2.854.3,9.953,9.953,0,0,1-2.643-.491,4.865,4.865,0,0,1-2.214-1.7,5.238,5.238,0,0,1-1.023-3.344V282.334h-2.173l.341-2.047,1.875-.383.341-4.09,2.387-.214v4.262h5.156v2.472h-5.156v12.528Q272.706,299.079,277.478,299.081Z" transform="translate(-214.244 -270.275)" fill="#fff"/><path d="M277.42,283.536V281.4h5.624v19.174h3.2v2.131h-8.607v-2.131h2.641V283.536Zm4.176-7.84a1.667,1.667,0,0,1-1.322-.533,2.049,2.049,0,0,1-.467-1.406,2,2,0,0,1,.49-1.406,1.731,1.731,0,0,1,1.343-.533,1.868,1.868,0,0,1,1.384.533,1.963,1.963,0,0,1,.533,1.45,1.779,1.779,0,0,1-.555,1.4A2.043,2.043,0,0,1,281.6,275.7Z" transform="translate(-210.309 -271.817)" fill="#fff"/><path d="M294.31,299.081l1.662-.084.128,1.7c-.03,0-.228.042-.6.127a12.531,12.531,0,0,1-2.854.3,9.953,9.953,0,0,1-2.643-.491,4.865,4.865,0,0,1-2.214-1.7,5.238,5.238,0,0,1-1.023-3.344V282.334H284.6l.341-2.047,1.875-.383.341-4.09,2.387-.214v4.262h5.156v2.472h-5.156v12.528Q289.538,299.079,294.31,299.081Z" transform="translate(-207.386 -270.275)" fill="#fff"/><path d="M311.421,297.463a13.3,13.3,0,0,1-7.329,2.6,10.03,10.03,0,0,1-3.409-.723,3.911,3.911,0,0,1-2.045-1.768,6.317,6.317,0,0,1-.767-3.26V280.76h-2.984v-2.131h5.754v14.829a4.338,4.338,0,0,0,.638,2.449,2.966,2.966,0,0,0,1.62,1.257,7.062,7.062,0,0,0,2.6.426,13.488,13.488,0,0,0,5.923-1.831v-15h-2.982v-2.131h5.752V297.8h3.281v2.131h-5.624Z" transform="translate(-203.192 -269.041)" fill="#fff"/><path d="M321.829,299.081l1.661-.084.128,1.7c-.028,0-.228.042-.6.127a12.523,12.523,0,0,1-2.854.3,9.932,9.932,0,0,1-2.642-.491,4.868,4.868,0,0,1-2.215-1.7,5.247,5.247,0,0,1-1.023-3.344V282.334h-2.172l.339-2.047,1.875-.383.342-4.09,2.386-.214v4.262h5.156v2.472h-5.156v12.528Q317.056,299.079,321.829,299.081Z" transform="translate(-196.172 -270.275)" fill="#fff"/><path d="M331.419,300.154a10.15,10.15,0,0,1-7.2-2.556q-2.749-2.557-2.749-7.819t2.919-8.268a9.816,9.816,0,0,1,7.35-3,10.2,10.2,0,0,1,7.2,2.557q2.768,2.555,2.769,7.819t-2.919,8.265A9.838,9.838,0,0,1,331.419,300.154Zm.255-19.174a6.937,6.937,0,0,0-5.306,2.3,8.827,8.827,0,0,0-2.13,6.241,8.4,8.4,0,0,0,2.024,6.052,7.438,7.438,0,0,0,10.546-.17,8.759,8.759,0,0,0,2.131-6.221,8.424,8.424,0,0,0-2.047-6.073A6.921,6.921,0,0,0,331.674,280.98Z" transform="translate(-192.36 -269.09)" fill="#fff"/></g><g transform="translate(123.435 235.022)"><path d="M141.869,234.516l-1.72,2.025c-.569.653-1.258,1.469-1.992,2.49s-1.657,2.131-2.518,3.5a67.71,67.71,0,0,0-5.668,10.171,69.683,69.683,0,0,0-6.206,32.085,72.276,72.276,0,0,0,1.081,9.685,74.633,74.633,0,0,0,2.538,9.851,70.493,70.493,0,0,0,9.715,18.863,70.429,70.429,0,0,0,15.446,15.5,70.183,70.183,0,0,0,19.421,10.047,71.874,71.874,0,0,0,10.427,2.6,76.456,76.456,0,0,0,10.439.971,78.964,78.964,0,0,0,10.123-.552,76.818,76.818,0,0,0,9.52-1.887,71.352,71.352,0,0,0,16.4-6.738,70.619,70.619,0,0,0,12.154-8.769,68.521,68.521,0,0,0,7.934-8.406c1.025-1.234,1.824-2.427,2.58-3.417.671-1,1.251-1.941,1.716-2.657l1.431-2.238,1,.646-1.441,2.231c-.483.733-1.025,1.612-1.759,2.693-.773,1-1.592,2.208-2.638,3.46a69.78,69.78,0,0,1-8.1,8.5,70.707,70.707,0,0,1-29.041,15.584,77.658,77.658,0,0,1-9.65,1.864,79.479,79.479,0,0,1-10.247.505,77.088,77.088,0,0,1-10.552-1.033,72.739,72.739,0,0,1-10.522-2.681,70.9,70.9,0,0,1-19.549-10.238,70.926,70.926,0,0,1-15.487-15.7,70.851,70.851,0,0,1-9.678-19.028,74.549,74.549,0,0,1-2.5-9.912,71.572,71.572,0,0,1,.529-27.546A70.771,70.771,0,0,1,135.6,242.5c.868-1.365,1.789-2.484,2.536-3.492s1.433-1.83,2.006-2.481Z" transform="translate(-123.435 -234.516)" fill="#fff"/><g transform="translate(128.473 80.391)"><path d="M220.658,296.4a3.183,3.183,0,1,0-4.344,1.181A3.182,3.182,0,0,0,220.658,296.4Z" transform="translate(-214.713 -291.633)" fill="#fff"/></g></g><g transform="translate(131.309 233.274)"><ellipse cx="8.693" cy="8.693" rx="8.693" ry="8.693" transform="translate(54.948 16.011)" fill="#fff"/><path d="M254.474,271.812a5.726,5.726,0,0,0-9.032,1.109h-21.75a8.64,8.64,0,0,0-.985-2.016l16.043-16.043a4.294,4.294,0,1,0-2.062-2.206l-16.067,16.065a8.674,8.674,0,0,0-2.1-1.144V244.092a5.86,5.86,0,1,0-5.795-.091v23.464a8.675,8.675,0,0,0-5.33,11.458l-13,13a8.6,8.6,0,0,0-3.647.049l-13.053-13.053a8.671,8.671,0,0,0-5.212-11.415V244a5.71,5.71,0,0,0,1.109-.847,5.9,5.9,0,1,0-6.9.939v23.443a8.661,8.661,0,0,0-2.158,1.137l-16.014-16.014a4.389,4.389,0,1,0-2.062,2.206l15.969,15.969a8.645,8.645,0,0,0-1.03,2.089H139.757a5.908,5.908,0,1,0,.09,5.795h21.621a8.7,8.7,0,0,0,1.272,2.3l-16.47,16.47a4.393,4.393,0,1,0,2.206,2.063l16.5-16.5a8.632,8.632,0,0,0,4.642,1.353,8.778,8.778,0,0,0,1.538-.144l13.319,13.319a8.661,8.661,0,0,0,4.009,10.486v22.908a8.7,8.7,0,1,0,8.738.218V307.846a8.653,8.653,0,0,0,3.579-10.459l13.129-13.128a8.775,8.775,0,0,0,1.537.144,8.635,8.635,0,0,0,4.716-1.4l16.545,16.544a4.264,4.264,0,0,0-.473,1.925,4.322,4.322,0,1,0,2.677-3.989l-16.539-16.538a8.674,8.674,0,0,0,1.222-2.231h21.74a5.776,5.776,0,1,0,9.122-6.9Zm-13.8-22.946a2.156,2.156,0,1,1-2.156,2.156A2.156,2.156,0,0,1,240.675,248.866Zm-96.151,4.313a2.156,2.156,0,1,1,2.158-2.156A2.156,2.156,0,0,1,144.524,253.179Zm-7.661,24.772a2.894,2.894,0,1,1,0-4.093A2.893,2.893,0,0,1,136.863,277.951Zm7.771,25.68a2.157,2.157,0,1,1,2.156-2.156A2.156,2.156,0,0,1,144.634,303.63Zm22.814-66.615a2.894,2.894,0,1,1,0,4.093A2.894,2.894,0,0,1,167.448,237.015Zm2.168,43.041a4.346,4.346,0,1,1,4.348-4.346A4.347,4.347,0,0,1,169.615,280.056Zm23.055,62.878a4.346,4.346,0,1,1,4.346-4.346A4.347,4.347,0,0,1,192.67,342.935Zm0-38.14a4.346,4.346,0,1,1,4.346-4.346A4.346,4.346,0,0,1,192.67,304.794Zm20.99-67.779a2.894,2.894,0,1,1,0,4.093A2.892,2.892,0,0,1,213.66,237.015Zm1.8,43.041a4.346,4.346,0,1,1,4.346-4.346A4.346,4.346,0,0,1,215.464,280.056Zm25.1,19.26a2.157,2.157,0,1,1-2.156,2.158A2.157,2.157,0,0,1,240.566,299.316Zm11.862-21.366a2.894,2.894,0,1,1,0-4.093A2.893,2.893,0,0,1,252.428,277.951Z" transform="translate(-129.029 -233.274)" fill="#fff"/></g></g></svg>