<svg xmlns="http://www.w3.org/2000/svg" width="437.278" height="626.1" viewBox="0 0 437.278 626.1">
  <g id="Agrupar_6" data-name="Agrupar 6" transform="translate(-117.706 -24.319)">
    <g id="Agrupar_1" data-name="Agrupar 1" transform="translate(143.722 540.863)">
      <path id="Caminho_1" data-name="Caminho 1" d="M124.457,181.285h10.421v-14.2l19.647-5.592v19.793h18.437v16.621H154.524v29.015q0,7.856,1.584,11.253t5.973,3.407a19.881,19.881,0,0,0,5.214-.605,36.136,36.136,0,0,0,4.906-1.815l3.48,15.111a49.981,49.981,0,0,1-9.523,3.326,45.561,45.561,0,0,1-11.03,1.357q-10.423,0-15.338-5.361t-4.914-17.608v-38.08H124.457Z" transform="translate(-124.457 -149.399)" fill="#fff"/>
      <path id="Caminho_2" data-name="Caminho 2" d="M181.889,186.3a25.6,25.6,0,0,0-8.467-1.665,13.884,13.884,0,0,0-8.841,2.794,13.476,13.476,0,0,0-4.756,7.184v48.8H140.179V167.861h15.265l2.266,9.974h.6a20.577,20.577,0,0,1,6.956-8.613,17.629,17.629,0,0,1,10.274-3.025,28.662,28.662,0,0,1,8.914,1.665Z" transform="translate(-79.589 -135.974)" fill="#fff"/>
      <path id="Caminho_3" data-name="Caminho 3" d="M153.668,168.937a9.986,9.986,0,0,1,3.245-7.484c2.17-2.058,5.164-3.1,8.995-3.1a13.675,13.675,0,0,1,9.3,3.1,9.6,9.6,0,0,1,3.549,7.484,9.164,9.164,0,0,1-3.549,7.33,14.1,14.1,0,0,1-9.3,2.944q-5.746,0-8.995-2.944A9.51,9.51,0,0,1,153.668,168.937Zm2.871,21.3h19.643v75.554H156.539Z" transform="translate(-41.094 -158.354)" fill="#fff"/>
      <path id="Caminho_4" data-name="Caminho 4" d="M184.294,239.176q0,5.289,1.357,7.708a4.655,4.655,0,0,0,4.386,2.42,20.791,20.791,0,0,0,3.549-.3,21.674,21.674,0,0,0,4.3-1.36l2.116,15.411a37.276,37.276,0,0,1-7.4,2.42,43.676,43.676,0,0,1-10.274,1.206q-8.613,0-13.145-4t-4.536-13.222V158.786h19.647Z" transform="translate(-9.762 -157.121)" fill="#fff"/>
      <path id="Caminho_5" data-name="Caminho 5" d="M222.255,264.561V221.649q0-9.214-2.567-13.3t-9.372-4.081a14.116,14.116,0,0,0-9.137,3.4,16.116,16.116,0,0,0-5.515,8.694v48.2H176.017V158.786h19.647v38.685h.605a27.277,27.277,0,0,1,8.914-7.708q5.289-2.867,13.45-2.871a31.046,31.046,0,0,1,10.12,1.511,16.445,16.445,0,0,1,7.33,4.987,22.527,22.527,0,0,1,4.382,9.446,63.979,63.979,0,0,1,1.437,14.729v47Z" transform="translate(22.685 -157.121)" fill="#fff"/>
      <path id="Caminho_6" data-name="Caminho 6" d="M200.736,172.128a64.624,64.624,0,0,1,14.352-4.3,92.692,92.692,0,0,1,17.381-1.588,39.473,39.473,0,0,1,13.149,1.888A18.962,18.962,0,0,1,258.385,181.8a42.677,42.677,0,0,1,1.283,10.883q0,6.648-.451,13.373t-.532,13.222q-.081,6.5.378,12.617a47.419,47.419,0,0,0,2.27,11.561H245.309l-3.172-10.428h-.751A26.99,26.99,0,0,1,233,241.112q-5.37,3.4-13.827,3.4a27,27,0,0,1-9.523-1.588,20.359,20.359,0,0,1-11.939-11.48,23.311,23.311,0,0,1-1.657-8.995,21.031,21.031,0,0,1,3.095-11.712,22.452,22.452,0,0,1,8.918-7.708,44.418,44.418,0,0,1,13.9-4.077,98.3,98.3,0,0,1,18.055-.678q1.058-8.463-1.21-12.163t-10.12-3.707a69.094,69.094,0,0,0-12.467,1.21,45.674,45.674,0,0,0-10.806,3.176Zm24.934,56.215q5.885,0,9.365-2.648a18.478,18.478,0,0,0,5.141-5.669v-9.816a53.928,53.928,0,0,0-8.991-.154,33.083,33.083,0,0,0-7.63,1.357,12.878,12.878,0,0,0-5.291,3.025,6.752,6.752,0,0,0-1.965,4.983A8.578,8.578,0,0,0,218.8,226,9.615,9.615,0,0,0,225.67,228.344Z" transform="translate(79.867 -135.86)" fill="#fff"/>
      <path id="Caminho_7" data-name="Caminho 7" d="M251.694,222.9a5.637,5.637,0,0,0-2.567-4.833,31.326,31.326,0,0,0-6.347-3.326c-2.524-1-5.291-2.042-8.313-3.1a31.177,31.177,0,0,1-8.313-4.382,24.005,24.005,0,0,1-6.343-7.1q-2.572-4.312-2.57-11.107,0-11.186,6.652-17.08t19.188-5.893a61.665,61.665,0,0,1,15.566,1.815,45.155,45.155,0,0,1,10.879,4.077l-4.382,14.205q-3.48-1.359-8.767-2.871a38.913,38.913,0,0,0-10.729-1.511q-8.764,0-8.76,6.8a5.015,5.015,0,0,0,2.567,4.382,33.273,33.273,0,0,0,6.347,3.1q3.775,1.439,8.313,3.1a36.233,36.233,0,0,1,8.309,4.3,22.553,22.553,0,0,1,6.343,6.879,20.685,20.685,0,0,1,2.574,10.879q0,11.486-7.33,18.059t-21.986,6.571a53.694,53.694,0,0,1-15.038-2.039,46.241,46.241,0,0,1-11.407-4.759l5.442-14.66a52,52,0,0,0,9.214,3.854,37.366,37.366,0,0,0,11.789,1.888,13.068,13.068,0,0,0,7.022-1.657C250.815,227.378,251.694,225.52,251.694,222.9Z" transform="translate(135.59 -136.308)" fill="#fff"/>
    </g>
    <g id="Agrupar_2" data-name="Agrupar 2" transform="translate(146.057 435.955)">
      <path id="Caminho_8" data-name="Caminho 8" d="M125.063,163.215V157.38h15.4v52.5h8.748v5.831H125.649v-5.831h7.234v-46.67ZM136.5,141.749a4.56,4.56,0,0,1-3.615-1.457,5.6,5.6,0,0,1-1.283-3.85,5.483,5.483,0,0,1,1.341-3.854,4.75,4.75,0,0,1,3.677-1.457,5.126,5.126,0,0,1,3.788,1.457,5.373,5.373,0,0,1,1.461,3.969,4.859,4.859,0,0,1-1.518,3.846A5.576,5.576,0,0,1,136.5,141.749Z" transform="translate(-125.063 -131.132)" fill="#fff"/>
      <path id="Caminho_9" data-name="Caminho 9" d="M132.481,144.034V138.2h15.4v6.536q9.561-6.532,18.317-6.883,8.515,0,12.949,3.384a13.092,13.092,0,0,1,3.561,4.725,17.214,17.214,0,0,1,1.572,7.642v37.1h8.983v5.831H169.7V190.7h7V156.517q0-11.313-13.3-11.315-7.237.237-15.515,4.783V190.7h8.748v5.831H133.063V190.7H140.3v-46.67Z" transform="translate(-103.893 -111.952)" fill="#fff"/>
      <path id="Caminho_10" data-name="Caminho 10" d="M157.19,189.039a28,28,0,0,0,7.873,1.522,38.754,38.754,0,0,0,3.908-.119,20.221,20.221,0,0,0,10.155-2.567,7.642,7.642,0,0,0,4.081-6.883,8.147,8.147,0,0,0-3.21-6.883,22.924,22.924,0,0,0-7.758-3.734q-4.549-1.283-9.1-2.8a19.243,19.243,0,0,1-7.758-4.786,11.637,11.637,0,0,1-3.21-8.517,14.437,14.437,0,0,1,5.719-11.958q5.711-4.486,14.463-4.494a39.577,39.577,0,0,1,13.184,2.335l2.1.817v13.419l-5.715.817-.466-9.92a54.43,54.43,0,0,0-7.816-.7q-6.422,0-10.151,2.513a7.47,7.47,0,0,0-3.734,6.413,7.045,7.045,0,0,0,3.206,6.128,26.008,26.008,0,0,0,7.762,3.5q4.549,1.283,9.1,2.86a18.375,18.375,0,0,1,7.758,5.133,13.325,13.325,0,0,1,3.21,9.272,14.623,14.623,0,0,1-5.777,12.193q-5.775,4.492-16.39,4.494t-17.616-5.018V178.657l5.6-.817Z" transform="translate(-51.018 -112.04)" fill="#fff"/>
      <path id="Caminho_11" data-name="Caminho 11" d="M189.687,199.2l4.551-.231.351,4.663c-.081,0-.624.119-1.634.351a34.315,34.315,0,0,1-7.815.821,27.567,27.567,0,0,1-7.237-1.345,13.32,13.32,0,0,1-6.062-4.667,14.343,14.343,0,0,1-2.8-9.157V153.353h-5.95l.933-5.6,5.133-1.048.933-11.2,6.536-.586v11.665h14.116v6.771H176.623v34.3Q176.623,199.2,189.687,199.2Z" transform="translate(-16.547 -120.333)" fill="#fff"/>
      <path id="Caminho_12" data-name="Caminho 12" d="M172.745,163.215V157.38h15.4v52.5H196.9v5.831h-23.57v-5.831h7.234v-46.67Zm11.434-21.466a4.574,4.574,0,0,1-3.619-1.457,5.617,5.617,0,0,1-1.279-3.85,5.483,5.483,0,0,1,1.341-3.854,4.75,4.75,0,0,1,3.676-1.457,5.126,5.126,0,0,1,3.788,1.457,5.386,5.386,0,0,1,1.457,3.969,4.857,4.857,0,0,1-1.515,3.846A5.576,5.576,0,0,1,184.179,141.749Z" transform="translate(11.012 -131.132)" fill="#fff"/>
      <path id="Caminho_13" data-name="Caminho 13" d="M206.519,199.2l4.551-.231.351,4.663c-.081,0-.624.119-1.634.351a34.315,34.315,0,0,1-7.816.821,27.568,27.568,0,0,1-7.237-1.345,13.32,13.32,0,0,1-6.062-4.667,14.343,14.343,0,0,1-2.8-9.157V153.353h-5.95l.933-5.6,5.133-1.048.933-11.2,6.536-.586v11.665h14.116v6.771H193.455v34.3Q193.455,199.2,206.519,199.2Z" transform="translate(31.488 -120.333)" fill="#fff"/>
      <path id="Caminho_14" data-name="Caminho 14" d="M235.483,189.511q-10.619,7.122-20.071,7.118a27.46,27.46,0,0,1-9.33-1.981,10.7,10.7,0,0,1-5.6-4.844,17.287,17.287,0,0,1-2.1-8.925v-37.1h-8.17v-5.835h15.754v40.6a11.889,11.889,0,0,0,1.746,6.709,8.1,8.1,0,0,0,4.436,3.438,19.356,19.356,0,0,0,7.118,1.172q7-.121,16.217-5.018v-41.07h-8.17v-5.835h15.754v52.5h8.983v5.831h-15.4Z" transform="translate(60.86 -111.695)" fill="#fff"/>
      <path id="Caminho_15" data-name="Caminho 15" d="M234.041,199.2l4.547-.231.351,4.663c-.077,0-.624.119-1.634.351a34.292,34.292,0,0,1-7.816.821,27.478,27.478,0,0,1-7.234-1.345,13.328,13.328,0,0,1-6.066-4.667,14.366,14.366,0,0,1-2.8-9.157V153.353h-5.95l.933-5.6L213.5,146.7l.937-11.2,6.532-.586v11.665h14.116v6.771H220.973v34.3Q220.973,199.2,234.041,199.2Z" transform="translate(110.019 -120.333)" fill="#fff"/>
      <path id="Caminho_16" data-name="Caminho 16" d="M244.036,197.093q-12.191,0-19.716-7t-7.527-21.408q0-14.406,7.993-22.633t20.125-8.228q12.134,0,19.72,7t7.581,21.412q0,14.406-7.993,22.63T244.036,197.093Zm.7-52.5a18.987,18.987,0,0,0-14.529,6.3q-5.833,6.3-5.831,17.092t5.538,16.571a20.366,20.366,0,0,0,28.88-.47q5.827-6.243,5.835-17.03t-5.6-16.629A18.953,18.953,0,0,0,244.737,144.589Z" transform="translate(136.717 -112.04)" fill="#fff"/>
    </g>
    <g id="Agrupar_4" data-name="Agrupar 4" transform="translate(117.706 29.891)">
      <path id="Caminho_17" data-name="Caminho 17" d="M176.444,25.765l-5.476,6.447c-1.815,2.085-4.012,4.686-6.351,7.935-2.366,3.229-5.272,6.794-8.02,11.161a215.538,215.538,0,0,0-18.059,32.407,222.016,222.016,0,0,0-19.774,102.234,230.671,230.671,0,0,0,3.441,30.857,237.736,237.736,0,0,0,8.089,31.389,224.545,224.545,0,0,0,30.954,60.1,224.206,224.206,0,0,0,49.213,49.387A223.66,223.66,0,0,0,272.342,389.7a228.989,228.989,0,0,0,33.22,8.286,242.908,242.908,0,0,0,33.266,3.095,251.39,251.39,0,0,0,32.256-1.757,244.723,244.723,0,0,0,30.333-6.016,227.153,227.153,0,0,0,52.261-21.47,225.015,225.015,0,0,0,38.727-27.94,218.456,218.456,0,0,0,25.281-26.78c3.26-3.935,5.808-7.735,8.216-10.887,2.143-3.183,3.985-6.185,5.469-8.471,2.975-4.652,4.563-7.13,4.563-7.13l3.2,2.062s-1.6,2.47-4.6,7.106c-1.538,2.335-3.264,5.133-5.6,8.579-2.463,3.195-5.072,7.037-8.405,11.022a221.958,221.958,0,0,1-25.821,27.073,228.465,228.465,0,0,1-39.447,28.164,230.346,230.346,0,0,1-53.086,21.5,247.525,247.525,0,0,1-30.746,5.935,254.372,254.372,0,0,1-32.649,1.615,245.971,245.971,0,0,1-33.625-3.3,231.335,231.335,0,0,1-33.528-8.54,226.04,226.04,0,0,1-62.289-32.622A225.92,225.92,0,0,1,159.992,309.2a226,226,0,0,1-30.838-60.628,237.958,237.958,0,0,1-7.97-31.586,227.883,227.883,0,0,1,1.688-87.767,225.6,225.6,0,0,1,33.586-78.009c2.771-4.347,5.7-7.912,8.085-11.126,2.355-3.241,4.567-5.831,6.39-7.9Z" transform="translate(-117.706 -25.765)" fill="#fff"/>
      <g id="Agrupar_3" data-name="Agrupar 3" transform="translate(409.358 256.15)">
        <path id="Caminho_18" data-name="Caminho 18" d="M242.876,107.417a10.143,10.143,0,1,0-13.843,3.761A10.146,10.146,0,0,0,242.876,107.417Z" transform="translate(-223.928 -92.232)" fill="#fff"/>
      </g>
    </g>
    <g id="Agrupar_5" data-name="Agrupar 5" transform="translate(142.801 24.319)">
      <circle id="Elipse_1" data-name="Elipse 1" cx="27.699" cy="27.699" r="27.699" transform="translate(175.08 51.015)" fill="#fff"/>
      <path id="Caminho_19" data-name="Caminho 19" d="M523.927,147.112a18.249,18.249,0,0,0-28.78,3.534h-69.3a27.726,27.726,0,0,0-3.141-6.42l51.121-51.117a13.654,13.654,0,1,0-6.575-7.025l-51.19,51.19a27.419,27.419,0,0,0-6.706-3.65V58.787a18.241,18.241,0,0,0,4.081-2.987,18.44,18.44,0,1,0-26.079,0,18.242,18.242,0,0,0,3.534,2.7v74.764a27.644,27.644,0,0,0-16.984,36.511L332.474,211.2a27.389,27.389,0,0,0-11.623.158l-41.59-41.59A27.632,27.632,0,0,0,262.654,133.4V58.5a18.244,18.244,0,0,0,3.534-2.7,18.44,18.44,0,1,0-26.079,0,18.243,18.243,0,0,0,4.081,2.987v74.7a27.528,27.528,0,0,0-6.867,3.623L186.3,86.083a14,14,0,1,0-6.575,7.025l50.886,50.886a27.777,27.777,0,0,0-3.283,6.652H158.4a18.41,18.41,0,1,0-2.7,22.545,18.293,18.293,0,0,0,2.991-4.081h68.891a27.523,27.523,0,0,0,4.054,7.326l-52.485,52.481a14,14,0,1,0,7.029,6.575l52.57-52.57a27.271,27.271,0,0,0,19.693,3.85l42.438,42.438a27.6,27.6,0,0,0,12.775,33.416v72.987a27.724,27.724,0,1,0,27.84.7V261.929A27.564,27.564,0,0,0,352.9,228.6l41.833-41.833a27.309,27.309,0,0,0,19.928-3.993l52.716,52.712a13.576,13.576,0,0,0-1.507,6.131,13.775,13.775,0,1,0,8.532-12.706l-52.7-52.7a27.7,27.7,0,0,0,3.892-7.11h69.268a18.406,18.406,0,1,0,29.069-22ZM479.955,74a6.871,6.871,0,1,1-6.871,6.871A6.87,6.87,0,0,1,479.955,74ZM173.589,87.74a6.871,6.871,0,1,1,6.871-6.871A6.87,6.87,0,0,1,173.589,87.74Zm-24.41,78.934a9.222,9.222,0,1,1,0-13.041A9.225,9.225,0,0,1,149.179,166.674Zm24.757,81.82a6.871,6.871,0,1,1,6.871-6.871A6.87,6.87,0,0,1,173.936,248.494ZM246.63,36.238a9.22,9.22,0,1,1,0,13.041A9.22,9.22,0,0,1,246.63,36.238Zm6.91,137.142a13.849,13.849,0,1,1,13.847-13.847A13.849,13.849,0,0,1,253.54,173.38ZM327,373.731a13.849,13.849,0,1,1,13.851-13.847A13.849,13.849,0,0,1,327,373.731Zm0-121.526a13.849,13.849,0,1,1,13.851-13.851A13.85,13.85,0,0,1,327,252.205ZM393.877,36.238a9.22,9.22,0,1,1,0,13.041A9.22,9.22,0,0,1,393.877,36.238Zm5.75,137.142a13.849,13.849,0,1,1,13.851-13.847A13.849,13.849,0,0,1,399.626,173.38Zm79.982,61.372a6.871,6.871,0,1,1-6.871,6.871A6.872,6.872,0,0,1,479.608,234.752Zm37.8-68.077a9.22,9.22,0,1,1,0-13.041A9.22,9.22,0,0,1,517.406,166.674Z" transform="translate(-124.218 -24.319)" fill="#fff"/>
    </g>
  </g>
</svg>
